<?xml version="1.0" encoding="UTF-8"?>
<svg version="1.1" xmlns="http://www.w3.org/2000/svg" width="512" height="512">
<path d="M0 0 C2.57101846 2.26453943 5.0650505 4.59099132 7.546875 6.953125 C8.10777832 7.48147949 8.66868164 8.00983398 9.24658203 8.55419922 C25.47039135 23.92344236 41.39281981 42.82983896 48.4453125 64.41015625 C50.74013836 72.91956633 50.74013836 72.91956633 56.49462891 78.99072266 C61.09315823 80.37239781 65.74399321 80.61362448 70.51806641 80.80615234 C78.05616317 81.35223348 84.72535356 86.43188163 89.546875 91.953125 C102.15891825 111.75066471 98.68922055 148.9233782 94.546875 170.953125 C92.53150776 179.09210807 89.41960011 185.50544214 82.4765625 190.41796875 C73.46465519 195.83453325 64.87567157 196.26770764 54.546875 195.953125 C54.32100708 196.82493408 54.32100708 196.82493408 54.09057617 197.71435547 C52.09547381 204.90634917 49.15351306 211.39633787 45.859375 218.078125 C45.09270508 219.6559375 45.09270508 219.6559375 44.31054688 221.265625 C43.06262035 223.83145523 41.80799664 226.39376168 40.546875 228.953125 C41.37300293 229.20481445 42.19913086 229.45650391 43.05029297 229.71582031 C46.16382921 230.66665811 49.27612212 231.62137967 52.38769531 232.57861328 C53.72544522 232.9893147 55.06365019 233.39853732 56.40234375 233.80615234 C79.00473405 240.69176077 79.00473405 240.69176077 82.546875 244.953125 C83.83918269 249.36850962 83.83918269 249.36850962 82.546875 251.953125 C83.7225 252.2934375 83.7225 252.2934375 84.921875 252.640625 C88.93413806 254.09334093 92.47397718 256.02394306 96.1796875 258.125 C98.51383135 259.23063141 98.51383135 259.23063141 100.65234375 258.125 C101.59013672 257.54492188 101.59013672 257.54492188 102.546875 256.953125 C108.41296213 256.03295447 111.54702626 257.71752626 116.1484375 261.046875 C126.7297205 269.45675464 137.79911783 279.02408327 140.546875 292.953125 C140.65428778 295.22234664 140.70558058 297.49442458 140.72387695 299.76611328 C140.73373375 300.78165031 140.73373375 300.78165031 140.74378967 301.81770325 C140.76345854 304.05294929 140.77517347 306.28812821 140.78515625 308.5234375 C140.78923178 309.29059963 140.7933073 310.05776176 140.79750633 310.84817123 C140.81834397 314.9121244 140.83265327 318.97604408 140.84204102 323.04003906 C140.85307551 327.21603764 140.88744721 331.39149899 140.92721272 335.56730843 C140.95349454 338.79660968 140.96174323 342.02578541 140.96532249 345.25518417 C140.97016194 346.79321783 140.98169965 348.33124689 141.00036049 349.86917496 C141.17627129 365.33309866 137.16719619 376.16377001 126.484375 387.453125 C91.52387996 420.90620234 26.28308777 436.81551236 -21.265625 438.390625 C-26.4391192 438.24608034 -29.70183704 437.80313106 -33.453125 433.953125 C-37.67482537 428.0112022 -38.03211644 423.38003179 -37.94921875 416.19921875 C-37.95067398 415.18013931 -37.95212921 414.16105988 -37.95362854 413.11109924 C-37.95197469 410.96539438 -37.94047129 408.81967701 -37.91967773 406.67407227 C-37.89068526 403.39743507 -37.89908803 400.12241394 -37.91210938 396.84570312 C-37.90587236 394.7552005 -37.8974817 392.66470297 -37.88671875 390.57421875 C-37.88965439 389.59907822 -37.89259003 388.62393768 -37.89561462 387.61924744 C-37.79943604 380.65899524 -36.75014783 376.28286895 -31.7109375 371.171875 C-28.05606202 368.68270321 -25.68618947 368.06164324 -21.328125 367.453125 C-19.80580039 367.21867309 -18.28367911 366.98289871 -16.76171875 366.74609375 C-15.9197998 366.62153809 -15.07788086 366.49698242 -14.21044922 366.36865234 C25.03356151 360.45460008 70.61411111 352.44415612 103.546875 328.953125 C81.36722626 304.50694281 29.6018368 298.05305054 -1.078125 292.578125 C-2.00761963 292.41030518 -2.93711426 292.24248535 -3.89477539 292.06958008 C-13.34822364 290.46175634 -19.39653032 290.26993737 -27.703125 295.453125 C-66.91754098 318.4825777 -116.27497764 324.01026713 -160.12158203 312.90136719 C-175.98027811 308.6406587 -192.33588039 302.82525869 -206.1953125 293.82128906 C-214.9503843 288.19090635 -225.17403582 291.73337874 -234.765625 293.515625 C-235.49143768 293.64906311 -236.21725037 293.78250122 -236.96505737 293.91998291 C-269.94798746 300.02159703 -306.67959896 308.14219243 -334.453125 327.953125 C-331.19290069 331.67673144 -327.47378315 333.71596646 -323.078125 335.828125 C-322.36551514 336.17544678 -321.65290527 336.52276855 -320.91870117 336.88061523 C-268.13628501 362.37695745 -208.28004833 369.12702948 -150.453125 372.953125 C-150.50339844 371.32117188 -150.50339844 371.32117188 -150.5546875 369.65625 C-150.42988046 365.1055934 -149.40627072 363.37255689 -146.453125 359.953125 C-142.06939046 357.0306353 -138.67534901 356.393601 -133.453125 356.953125 C-127.9437374 359.24336461 -123.58051869 362.77098524 -118.953125 366.453125 C-118.15777344 367.07896484 -117.36242187 367.70480469 -116.54296875 368.34960938 C-114.1761676 370.21303789 -111.81451069 372.08284205 -109.453125 373.953125 C-107.6718276 375.35557796 -105.88891871 376.75593776 -104.10498047 378.1550293 C-103.00296383 379.02103912 -101.90302557 379.88970021 -100.80517578 380.76098633 C-97.48729507 383.38832172 -94.12787375 385.9461857 -90.7265625 388.46484375 C-89.91445313 389.07457031 -89.10234375 389.68429687 -88.265625 390.3125 C-86.68411392 391.49863331 -85.09339691 392.67262711 -83.4921875 393.83203125 C-78.63214522 397.50291425 -75.31286049 401.04943145 -73.453125 406.953125 C-72.96208521 411.83925315 -74.1293637 415.01083541 -77.203125 418.828125 C-81.86777468 423.70178139 -87.30981261 427.62909858 -92.70605469 431.64111328 C-95.55520068 433.78075981 -98.34595938 435.99309891 -101.140625 438.203125 C-102.29920711 439.11492912 -103.45807028 440.02637623 -104.6171875 440.9375 C-105.2246582 441.41509766 -105.83212891 441.89269531 -106.45800781 442.38476562 C-107.11639648 442.90232422 -107.77478516 443.41988281 -108.453125 443.953125 C-109.58766113 444.84547852 -109.58766113 444.84547852 -110.74511719 445.75585938 C-113.16626131 447.65797745 -115.59062912 449.55592089 -118.015625 451.453125 C-118.77770264 452.05286133 -119.53978027 452.65259766 -120.32495117 453.27050781 C-127.51043155 458.88204105 -132.07948312 462.06682503 -141.453125 460.953125 C-146.04769798 459.15524862 -148.23177453 456.3135537 -150.453125 451.953125 C-150.66677108 449.26498256 -150.52826877 446.65551746 -150.453125 443.953125 C-151.81908813 443.87795654 -151.81908813 443.87795654 -153.21264648 443.80126953 C-163.29641619 443.23897043 -173.37632925 442.6294136 -183.453125 441.953125 C-184.49291504 441.88367676 -185.53270508 441.81422852 -186.60400391 441.74267578 C-188.97425982 441.57103204 -191.33761015 441.36738339 -193.703125 441.140625 C-194.92515625 441.03105469 -196.1471875 440.92148437 -197.40625 440.80859375 C-201.27948067 439.72110976 -202.92809691 438.03568666 -205.453125 434.953125 C-205.783125 433.963125 -206.113125 432.973125 -206.453125 431.953125 C-215.363125 430.468125 -215.363125 430.468125 -224.453125 428.953125 C-225.113125 430.603125 -225.773125 432.253125 -226.453125 433.953125 C-233.79205874 437.62259187 -244.35235038 433.54666149 -251.953125 431.890625 C-252.68244232 431.73384277 -253.41175964 431.57706055 -254.16317749 431.41552734 C-267.45562031 428.5480421 -280.50377871 425.11929273 -293.453125 420.953125 C-294.31647461 420.68032715 -295.17982422 420.4075293 -296.06933594 420.12646484 C-322.95701382 411.54801523 -355.09756895 398.12098309 -368.828125 371.640625 C-371.17718726 366.76887415 -371.58653122 362.55301011 -371.63012695 357.14013672 C-371.63669815 356.46311203 -371.64326935 355.78608734 -371.65003967 355.08854675 C-371.66970854 352.85330071 -371.68142347 350.61812179 -371.69140625 348.3828125 C-371.69548178 347.61565037 -371.6995573 346.84848824 -371.70375633 346.05807877 C-371.72459397 341.9941256 -371.73890327 337.93020592 -371.74829102 333.86621094 C-371.75932551 329.69021236 -371.79369721 325.51475101 -371.83346272 321.33894157 C-371.85974454 318.10964032 -371.86799323 314.88046459 -371.87157249 311.65106583 C-371.87641194 310.11303217 -371.88794965 308.57500311 -371.90661049 307.03707504 C-372.08199627 291.6193042 -368.08259897 280.83738282 -357.515625 269.515625 C-337.59690767 250.39498649 -298.10890887 229.953125 -270.453125 229.953125 C-270.72987061 229.44563721 -271.00661621 228.93814941 -271.29174805 228.4152832 C-285.453125 202.32357245 -285.453125 202.32357245 -285.453125 195.953125 C-286.16855469 195.99953125 -286.88398438 196.0459375 -287.62109375 196.09375 C-297.98325594 196.46909352 -308.65986661 194.71759956 -316.7421875 187.7265625 C-330.64770746 173.31307834 -327.97110731 148.94297969 -327.6796875 130.2421875 C-326.85489922 97.92548291 -326.85489922 97.92548291 -315.453125 86.828125 C-309.96730725 82.37890551 -302.92961986 79.90367814 -295.8828125 80.00390625 C-291.72401679 80.01737967 -289.19500419 79.8240646 -285.453125 77.953125 C-281.61336059 72.60935791 -279.81147121 65.95378131 -277.58789062 59.82470703 C-271.25941954 43.81018962 -260.05807012 29.66767841 -248.4609375 17.171875 C-247.05659319 15.61999258 -245.71120089 14.01363872 -244.4140625 12.37109375 C-241.47925592 8.75227846 -238.00224475 5.95262818 -234.453125 2.953125 C-233.59847656 2.19902344 -232.74382812 1.44492187 -231.86328125 0.66796875 C-166.48001158 -55.92578044 -65.85386765 -54.9481316 0 0 Z " fill="#010202" transform="translate(371.453125,46.046875)"/>
<path d="M0 0 C1.88912109 0.04447266 1.88912109 0.04447266 3.81640625 0.08984375 C40.21199507 1.85161369 75.41158647 18.56840883 102 43 C102.54474787 43.44368675 103.08949574 43.8873735 103.65075111 44.34450531 C105.51203482 46.62825393 105.37731152 48.12916484 105.38095093 51.05432129 C105.3894104 52.09958481 105.39786987 53.14484833 105.40658569 54.2217865 C105.39747665 55.94214867 105.39747665 55.94214867 105.38818359 57.69726562 C105.39606903 59.51019859 105.39606903 59.51019859 105.40411377 61.35975647 C105.41507556 64.68119322 105.41247157 68.00207103 105.40297651 71.32347679 C105.39536672 74.81530876 105.40243173 78.30711725 105.40713501 81.7989502 C105.41260031 87.68030046 105.40539283 93.56153796 105.39111328 99.44287109 C105.37490652 106.19490772 105.37998389 112.94667084 105.3965925 119.69870043 C105.41033166 125.52153842 105.41206357 131.34429528 105.40427649 137.1671443 C105.3996517 140.63245561 105.39882615 144.09763989 105.40888596 147.5629425 C105.48380987 185.22642236 105.48380987 185.22642236 98.8125 201.75 C98.36076416 202.91511108 98.36076416 202.91511108 97.89990234 204.10375977 C92.9068194 216.62749913 86.48454777 227.51722228 78 238 C77.46503906 238.67675781 76.93007813 239.35351562 76.37890625 240.05078125 C62.59213472 256.90127978 42.57421055 267.60567753 22.125 273.9375 C21.17439697 274.23229248 20.22379395 274.52708496 19.24438477 274.83081055 C3.44551885 279.4678087 -16.03601794 280.18218093 -32 276 C-33.12921875 275.74347656 -34.2584375 275.48695313 -35.421875 275.22265625 C-54.03930728 270.72279969 -69.29070236 262.21443444 -84 250 C-84.56460938 249.55914062 -85.12921875 249.11828125 -85.7109375 248.6640625 C-104.11193312 234.15745749 -116.28656138 209.56358019 -121 187 C-121.18401367 186.13028564 -121.36802734 185.26057129 -121.55761719 184.36450195 C-124.06648454 170.10174759 -123.3589376 155.38490249 -123.38085938 140.95581055 C-123.39032709 137.24754196 -123.42398339 133.54011303 -123.4609375 129.83203125 C-123.45589203 128.68837601 -123.45084656 127.54472076 -123.44564819 126.3664093 C-123.45891144 125.31068222 -123.47217468 124.25495514 -123.48583984 123.16723633 C-123.48868988 122.23905594 -123.49153992 121.31087555 -123.49447632 120.35456848 C-123.80228109 117.85476716 -123.80228109 117.85476716 -125.87197876 116.19267273 C-128.47754966 114.73235208 -130.05214857 114.69765626 -133 115 C-133.99 115.33 -134.98 115.66 -136 116 C-137.00663792 119.01991375 -137.14410622 121.09572345 -137.17700195 124.25561523 C-137.18983719 125.33201767 -137.20267242 126.4084201 -137.21589661 127.5174408 C-137.22328354 128.68602127 -137.23067047 129.85460175 -137.23828125 131.05859375 C-137.246353 132.27209 -137.25442474 133.48558624 -137.26274109 134.7358551 C-137.27659508 137.31745982 -137.28731132 139.89908295 -137.29516602 142.48071289 C-137.30658891 145.08819039 -137.3268829 147.69564636 -137.35668945 150.30297852 C-137.53627969 166.01762553 -137.09175076 180.77158972 -133 196 C-132.57618042 197.61467163 -132.57618042 197.61467163 -132.14379883 199.26196289 C-131.41847679 201.81176447 -130.62055417 204.30903901 -129.75 206.8125 C-129.30394409 208.11392944 -129.30394409 208.11392944 -128.84887695 209.44165039 C-117.44050239 241.57795856 -93.29106098 265.78351605 -63.0234375 280.6875 C-37.5346843 292.71395142 -7.3652681 295.80979022 20 289 C20.95390625 288.7834375 21.9078125 288.566875 22.890625 288.34375 C41.8328709 283.69126855 59.11467466 274.44885265 74 262 C74.94617188 261.21882813 75.89234375 260.43765625 76.8671875 259.6328125 C95.5128658 243.52252389 107.43505718 221.80175611 114.25 198.375 C114.49645264 197.52856934 114.74290527 196.68213867 114.99682617 195.81005859 C117.89980682 185.38421381 119.29558342 175.17057566 119.31884766 164.35644531 C119.32889328 163.26229309 119.3389389 162.16814087 119.34928894 161.04083252 C119.37986663 157.46993475 119.39708481 153.89911104 119.4140625 150.328125 C119.43279462 147.8342018 119.45236953 145.3402848 119.4727478 142.84637451 C119.52385897 136.31664706 119.56359672 129.78689911 119.60089111 123.25708008 C119.64002408 116.58018578 119.69209501 109.90338161 119.7421875 103.2265625 C119.83869771 90.1511017 119.92355095 77.0755927 120 64 C142.48802403 86.04461136 154.67091018 123.69248503 155.265625 154.5859375 C155.2741748 157.18228281 155.26869111 159.77870789 155.25 162.375 C155.24689819 163.05354034 155.24379639 163.73208069 155.24060059 164.43118286 C155.00513082 208.41421875 138.22874114 246.59375663 109 279 C108.32453125 279.74894531 107.6490625 280.49789063 106.953125 281.26953125 C84.78796098 304.52400888 53.18624254 319.70576067 22 326 C21.18096191 326.17732666 20.36192383 326.35465332 19.51806641 326.53735352 C10.92454753 328.20976274 2.45925967 328.33884966 -6.26171875 328.31567383 C-8.73222416 328.31252267 -11.20151733 328.33602514 -13.671875 328.36132812 C-24.14924224 328.40270989 -33.7744141 327.31372709 -44 325 C-45.36001704 324.70647841 -46.7202072 324.41375785 -48.08056641 324.12182617 C-70.65027355 319.14387679 -92.13566861 308.62733402 -110 294 C-110.80195801 293.34813721 -110.80195801 293.34813721 -111.62011719 292.68310547 C-144.13579568 266.15219679 -166.48132709 228.94191412 -172 187 C-172.13921875 186.03223633 -172.13921875 186.03223633 -172.28125 185.04492188 C-173.23826807 177.72373364 -173.24350599 170.37322909 -173.25 163 C-173.25067474 162.30958618 -173.25134949 161.61917236 -173.25204468 160.90783691 C-173.23558318 150.29062989 -172.5827171 140.33595249 -170 130 C-169.65541583 128.47675096 -169.31170657 126.95330381 -168.96875 125.4296875 C-163.90568648 103.86593025 -154.33605467 82.08637691 -140 65 C-139.34 64.67 -138.68 64.34 -138 64 C-137.98541748 64.73637695 -137.97083496 65.47275391 -137.95581055 66.23144531 C-137.88128889 69.57149004 -137.78464127 72.91053981 -137.6875 76.25 C-137.65366211 77.98830078 -137.65366211 77.98830078 -137.61914062 79.76171875 C-137.58369141 80.87675781 -137.54824219 81.99179688 -137.51171875 83.140625 C-137.48553467 84.16704102 -137.45935059 85.19345703 -137.43237305 86.25097656 C-136.94150673 89.37189964 -136.24242995 90.79164953 -134 93 C-129.37292684 93.64016303 -129.37292684 93.64016303 -125.30133057 91.73944092 C-123.67367857 89.5638181 -123.64289696 88.42859106 -123.67871094 85.73144531 C-123.68291046 84.44430634 -123.68291046 84.44430634 -123.68719482 83.13116455 C-123.70276428 82.2061615 -123.71833374 81.28115845 -123.734375 80.328125 C-123.73160263 78.3645814 -123.72765925 76.40103918 -123.72265625 74.4375 C-123.73099505 71.34527688 -123.74994638 68.25408517 -123.79052734 65.16210938 C-123.82349489 62.17496281 -123.81298898 59.19035602 -123.796875 56.203125 C-123.82054138 55.28621887 -123.84420776 54.36931274 -123.86859131 53.42462158 C-123.81182328 48.38555565 -123.24384082 45.67217219 -119.63769531 42.02197266 C-118.44770761 40.98807446 -117.23595361 39.97848602 -116 39 C-115.01 38.15695313 -114.02 37.31390625 -113 36.4453125 C-105.02636172 30.27820164 -96.8137252 24.89229821 -88 20 C-87.37786621 19.65195312 -86.75573242 19.30390625 -86.11474609 18.9453125 C-70.87831642 10.5433632 -54.15228922 4.89266635 -37 2 C-35.87335938 1.79632812 -34.74671875 1.59265625 -33.5859375 1.3828125 C-22.41033512 -0.39457089 -11.28522455 -0.28074898 0 0 Z " fill="#B1D8FC" transform="translate(265,20)"/>
<path d="M0 0 C17.50820967 14.25769449 31.75850365 34.32204992 34.58203125 57.25 C37.11806643 82.68752389 32.88475828 106.06198491 17.53125 126.91015625 C2.7059013 145.00714826 -18.14221552 159.54018839 -42 162 C-46.06343961 162.16206825 -50.12117405 162.18507234 -54.1875 162.1875 C-55.24775391 162.19974609 -56.30800781 162.21199219 -57.40039062 162.22460938 C-81.90936789 162.26941555 -101.5968054 152.86916156 -119 136 C-119.91652344 135.19369141 -119.91652344 135.19369141 -120.8515625 134.37109375 C-134.49400832 121.94338626 -143.43958412 101.11260092 -145 83 C-146.24178877 55.91744049 -140.77939916 31.56677961 -122.1875 11.125 C-90.16727821 -22.55519219 -37.47713073 -28.73062164 0 0 Z " fill="#5FB6FD" transform="translate(311,112)"/>
<path d="M0 0 C0.33 0 0.66 0 1 0 C1.00410889 0.73114014 1.00821777 1.46228027 1.01245117 2.21557617 C1.04542209 5.54036307 1.11607147 8.86332616 1.1875 12.1875 C1.19330078 13.33798828 1.19910156 14.48847656 1.20507812 15.67382812 C1.13988164 22.54331022 1.13988164 22.54331022 4.42578125 28.23828125 C6.84254785 29.97797718 6.84254785 29.97797718 9 31 C9 37.27 9 43.54 9 50 C7.02 50.66 5.04 51.32 3 52 C1.99336208 55.01991375 1.85589378 57.09572345 1.82299805 60.25561523 C1.81016281 61.33201767 1.79732758 62.4084201 1.78410339 63.5174408 C1.77671646 64.68602127 1.76932953 65.85460175 1.76171875 67.05859375 C1.753647 68.27209 1.74557526 69.48558624 1.73725891 70.7358551 C1.72340492 73.31745982 1.71268868 75.89908295 1.70483398 78.48071289 C1.69341109 81.08819039 1.6731171 83.69564636 1.64331055 86.30297852 C1.46372031 102.01762553 1.90824924 116.77158972 6 132 C6.42381958 133.61467163 6.42381958 133.61467163 6.85620117 135.26196289 C7.58152321 137.81176447 8.37944583 140.30903901 9.25 142.8125 C9.69605591 144.11392944 9.69605591 144.11392944 10.15112305 145.44165039 C21.55949761 177.57795856 45.70893902 201.78351605 75.9765625 216.6875 C101.4653157 228.71395142 131.6347319 231.80979022 159 225 C159.95390625 224.7834375 160.9078125 224.566875 161.890625 224.34375 C180.8328709 219.69126855 198.11467466 210.44885265 213 198 C213.94617188 197.21882812 214.89234375 196.43765625 215.8671875 195.6328125 C234.5128658 179.52252389 246.43505718 157.80175611 253.25 134.375 C253.49645264 133.52856934 253.74290527 132.68213867 253.99682617 131.81005859 C256.89980682 121.38421381 258.29558342 111.17057566 258.31884766 100.35644531 C258.32889328 99.26229309 258.3389389 98.16814087 258.34928894 97.04083252 C258.37986663 93.46993475 258.39708481 89.89911104 258.4140625 86.328125 C258.43279462 83.8342018 258.45236953 81.3402848 258.4727478 78.84637451 C258.52385897 72.31664706 258.56359672 65.78689911 258.60089111 59.25708008 C258.64002408 52.58018578 258.69209501 45.90338161 258.7421875 39.2265625 C258.83869771 26.1511017 258.92355095 13.0755927 259 0 C281.48802403 22.04461136 293.67091018 59.69248503 294.265625 90.5859375 C294.2741748 93.18228281 294.26869111 95.77870789 294.25 98.375 C294.24689819 99.05354034 294.24379639 99.73208069 294.24060059 100.43118286 C294.00513082 144.41421875 277.22874114 182.59375663 248 215 C247.32453125 215.74894531 246.6490625 216.49789062 245.953125 217.26953125 C223.78796098 240.52400888 192.18624254 255.70576067 161 262 C160.18096191 262.17732666 159.36192383 262.35465332 158.51806641 262.53735352 C149.92454753 264.20976274 141.45925967 264.33884966 132.73828125 264.31567383 C130.26777584 264.31252267 127.79848267 264.33602514 125.328125 264.36132812 C114.85075776 264.40270989 105.2255859 263.31372709 95 261 C93.63998296 260.70647841 92.2797928 260.41375785 90.91943359 260.12182617 C68.34972645 255.14387679 46.86433139 244.62733402 29 230 C28.19804199 229.34813721 28.19804199 229.34813721 27.37988281 228.68310547 C-5.13579568 202.15219679 -27.48132709 164.94191412 -33 123 C-33.13921875 122.03223633 -33.13921875 122.03223633 -33.28125 121.04492188 C-34.23826807 113.72373364 -34.24350599 106.37322909 -34.25 99 C-34.25067474 98.30958618 -34.25134949 97.61917236 -34.25204468 96.90783691 C-34.23558318 86.29062989 -33.5827171 76.33595249 -31 66 C-30.65541583 64.47675096 -30.31170657 62.95330381 -29.96875 61.4296875 C-25.05078305 40.48390138 -15.56189578 15.56189578 0 0 Z " fill="#E8F4FD" transform="translate(126,84)"/>
<path d="M0 0 C3.4471684 2.03834431 6.63215881 4.1909121 9.8125 6.625 C61.25671068 43.96463901 139.72298597 53.24550785 201.75732422 54.93701172 C203.79840191 54.99433787 205.83876194 55.07592068 207.87890625 55.16015625 C208.95011719 55.18980469 210.02132812 55.21945312 211.125 55.25 C212.42824219 55.28867187 212.42824219 55.28867187 213.7578125 55.328125 C216.68614504 54.89958853 217.96433171 54.14977526 220 52 C220.69749589 49.27510527 220.69749589 49.27510527 220.75 46.3125 C220.80671875 45.31863281 220.8634375 44.32476562 220.921875 43.30078125 C220.94765625 42.54152344 220.9734375 41.78226562 221 41 C231.24867916 48.63627074 241.34080832 56.47712157 251.4375 64.3125 C252.19466309 64.89902344 252.95182617 65.48554688 253.73193359 66.08984375 C257.88783457 69.3194461 261.97913381 72.60361065 266 76 C261.86875403 80.36848584 257.33224776 83.97603195 252.5625 87.625 C250.9542132 88.8656082 249.34614288 90.10649707 247.73828125 91.34765625 C246.54259521 92.26828857 246.54259521 92.26828857 245.32275391 93.20751953 C241.95180807 95.8088948 238.59851296 98.4323452 235.25 101.0625 C234.4293103 101.70469482 234.4293103 101.70469482 233.59204102 102.35986328 C230.92218236 104.45622124 228.30581404 106.59395354 225.734375 108.80859375 C223 111 223 111 221 111 C220.94392578 109.86111328 220.94392578 109.86111328 220.88671875 108.69921875 C220.82097656 107.70535156 220.75523437 106.71148437 220.6875 105.6875 C220.60048828 104.20830078 220.60048828 104.20830078 220.51171875 102.69921875 C219.9466686 99.71868706 219.37188932 98.8096637 217 97 C213.73755189 95.36877594 210.11227606 95.65516655 206.51953125 95.5 C205.67331711 95.45939453 204.82710297 95.41878906 203.95524597 95.37695312 C201.24117785 95.24705381 198.52688899 95.12299913 195.8125 95 C193.11598807 94.8766097 190.41957147 94.75184931 187.72331238 94.62304688 C186.04500802 94.54296637 184.3665522 94.46598048 182.6879425 94.39257812 C178.06892412 94.17328468 173.57583883 93.70808963 169 93 C166.60847621 92.79530836 164.2112149 92.64882235 161.8125 92.5625 C160.62269531 92.50191406 159.43289062 92.44132812 158.20703125 92.37890625 C157.14871094 92.58386719 156.09039062 92.78882813 155 93 C153.68 94.98 152.36 96.96 151 99 C144.73 98.01 138.46 97.02 132 96 C131.34 94.02 130.68 92.04 130 90 C127.31087757 87.31087757 125.19025959 87.25125192 121.46484375 86.51953125 C120.09654657 86.24374615 118.72830339 85.96769304 117.36010742 85.69140625 C116.63890717 85.54848145 115.91770691 85.40555664 115.1746521 85.25830078 C27.45867076 67.77900064 27.45867076 67.77900064 4 36.25 C0.82546598 31.09138221 -0.25084992 27.46806671 -0.1953125 21.38671875 C-0.18886719 20.13955078 -0.18242187 18.89238281 -0.17578125 17.60742188 C-0.15902344 16.31384766 -0.14226563 15.02027344 -0.125 13.6875 C-0.11597656 12.37458984 -0.10695313 11.06167969 -0.09765625 9.70898438 C-0.07411797 6.47247087 -0.0412352 3.23632851 0 0 Z " fill="#6BF3C0" transform="translate(15,379)"/>
<path d="M0 0 C17.50820967 14.25769449 31.75850365 34.32204992 34.58203125 57.25 C37.11806643 82.68752389 32.88475828 106.06198491 17.53125 126.91015625 C2.7059013 145.00714826 -18.14221552 159.54018839 -42 162 C-46.06343961 162.16206825 -50.12117405 162.18507234 -54.1875 162.1875 C-55.24775391 162.19974609 -56.30800781 162.21199219 -57.40039062 162.22460938 C-81.90936789 162.26941555 -101.5968054 152.86916156 -119 136 C-119.91652344 135.19369141 -119.91652344 135.19369141 -120.8515625 134.37109375 C-134.49400832 121.94338626 -143.43958412 101.11260092 -145 83 C-146.24178877 55.91744049 -140.77939916 31.56677961 -122.1875 11.125 C-90.16727821 -22.55519219 -37.47713073 -28.73062164 0 0 Z M-112.30078125 22.3984375 C-127.21743062 39.83498686 -131.13130999 59.89476662 -130.2265625 82.26464844 C-128.97124166 97.4204832 -120.92162819 111.84763549 -111 123 C-110.40703125 123.68707031 -109.8140625 124.37414062 -109.203125 125.08203125 C-98.20858761 136.99278009 -81.40986453 145.94795025 -65.17749023 147.22143555 C-42.54328029 148.08595582 -22.40164029 144.56643905 -5 129 C-3.89591797 128.03513672 -3.89591797 128.03513672 -2.76953125 127.05078125 C7.76040509 117.2457975 13.92378688 105.63648807 18 92 C18.36738281 90.93007812 18.73476563 89.86015625 19.11328125 88.7578125 C20.26287088 83.88598332 20.2998317 79.29992957 20.25 74.3125 C20.24250732 73.33297363 20.23501465 72.35344727 20.22729492 71.34423828 C19.9182916 50.54261825 12.42362349 32.63467537 -2.1796875 17.69140625 C-18.00731346 2.58720364 -38.32591893 -3.60959736 -59.7578125 -3.26953125 C-80.42667666 -2.50749358 -98.23110218 7.73157341 -112.30078125 22.3984375 Z " fill="#030303" transform="translate(311,112)"/>
<path d="M0 0 C6.99058062 13.53976422 7.35724227 30.47849344 7.25 45.375 C7.24689819 46.05354034 7.24379639 46.73208069 7.24060059 47.43118286 C7.00513082 91.41421875 -9.77125886 129.59375663 -39 162 C-39.67546875 162.74894531 -40.3509375 163.49789062 -41.046875 164.26953125 C-63.21203902 187.52400888 -94.81375746 202.70576067 -126 209 C-126.81903809 209.17732666 -127.63807617 209.35465332 -128.48193359 209.53735352 C-137.07545247 211.20976274 -145.54074033 211.33884966 -154.26171875 211.31567383 C-156.73222416 211.31252267 -159.20151733 211.33602514 -161.671875 211.36132812 C-172.14924224 211.40270989 -181.7744141 210.31372709 -192 208 C-193.36001704 207.70647841 -194.7202072 207.41375785 -196.08056641 207.12182617 C-218.65027355 202.14387679 -240.13566861 191.62733402 -258 177 C-258.80195801 176.34813721 -258.80195801 176.34813721 -259.62011719 175.68310547 C-269.33864206 167.75335257 -278.19094826 159.47783686 -286 149.625 C-286.72243896 148.7136731 -286.72243896 148.7136731 -287.45947266 147.78393555 C-289.45908529 145.20522182 -290.96030058 143.11909827 -292 140 C-287.73995537 141.39474771 -285.30147115 143.37300659 -282.125 146.5 C-250.64366549 176.07956106 -205.37888052 188.20125466 -163.10205078 187.13623047 C-128.25256712 185.60577148 -94.6069916 173.2448152 -67 152 C-66.08089844 151.30519531 -65.16179687 150.61039063 -64.21484375 149.89453125 C-27.15688093 120.80484909 -6.29598412 78.50138519 -0.53515625 32.26953125 C0.3988252 21.56073029 0.09482811 10.74037712 0 0 Z " fill="#D6EAFC" transform="translate(413,137)"/>
<path d="M0 0 C1.06476563 0.35191406 2.12953125 0.70382813 3.2265625 1.06640625 C22.0401872 7.74149792 37.23435224 20.81354559 46.0168457 38.84716797 C54.04914139 55.9938082 56.55275204 77.39994309 50.1940918 95.57080078 C46.25483822 105.96137386 41.40905785 114.702402 34 123 C33.32195312 123.77214844 32.64390625 124.54429687 31.9453125 125.33984375 C20.61417446 137.48034879 3.82995168 146.01130558 -12.86865234 147.20507812 C-16.01919797 147.30370565 -19.16049356 147.32205733 -22.3125 147.3125 C-23.36373047 147.32861328 -24.41496094 147.34472656 -25.49804688 147.36132812 C-36.09082818 147.36783875 -45.72402192 145.22200768 -55.125 140.3125 C-55.80240234 139.96509766 -56.47980469 139.61769531 -57.17773438 139.25976562 C-63.03639949 136.16009057 -68.10579755 132.47823949 -73 128 C-74.02287109 127.11441406 -74.02287109 127.11441406 -75.06640625 126.2109375 C-85.22964551 116.86314405 -91.10060696 105.04495743 -95 92 C-95.36738281 90.93007812 -95.73476562 89.86015625 -96.11328125 88.7578125 C-97.26287088 83.88598332 -97.2998317 79.29992957 -97.25 74.3125 C-97.24250732 73.33297363 -97.23501465 72.35344727 -97.22729492 71.34423828 C-96.92443534 50.9562051 -89.85120483 33.41029903 -75.65625 18.53125 C-55.84253819 -0.35005184 -26.3889885 -9.20288255 0 0 Z M-68.9140625 37.32421875 C-79.10524769 51.87932169 -81.77953213 67.25278366 -79.4375 84.625 C-76.1935178 99.71065151 -66.42222244 112.21293826 -54.09375 121.0234375 C-40.44811198 129.74148401 -24.52007299 132.77987874 -8.56347656 129.49902344 C-0.3190901 127.17681271 7.2864767 123.31938439 14 118 C14.66 117.52433594 15.32 117.04867187 16 116.55859375 C26.19834798 108.61105304 33.40197022 95.29466302 35.57421875 82.66015625 C37.56608267 65.53743614 34.7332546 50.22140827 23.9296875 36.33984375 C12.24713401 22.84588388 -1.54660846 15.34373935 -19.4453125 13.6796875 C-39.40353149 13.00994861 -56.43693514 22.17342124 -68.9140625 37.32421875 Z " fill="#E6F2FB" transform="translate(278,112)"/>
<path d="M0 0 C0.66 0 1.32 0 2 0 C2.08777806 4.16653186 2.14065272 8.33282276 2.1875 12.5 C2.21263672 13.67304688 2.23777344 14.84609375 2.26367188 16.0546875 C2.36358825 27.9114305 -0.69327008 35.47667532 -8.93359375 44 C-32.54769619 66.18425771 -70.88687657 76.88083339 -102 83 C-103.28487305 83.26151855 -103.28487305 83.26151855 -104.59570312 83.52832031 C-114.21512572 85.48105606 -123.87144079 87.19307573 -133.5625 88.75 C-134.35414551 88.87777832 -135.14579102 89.00555664 -135.96142578 89.13720703 C-139.36728511 89.66743825 -142.54329947 90 -146 90 C-146.02464775 84.46411467 -146.04283496 78.928261 -146.05493164 73.39233398 C-146.05997244 71.5075627 -146.06680498 69.62279535 -146.07543945 67.73803711 C-146.08751617 65.03498364 -146.09323068 62.33198169 -146.09765625 59.62890625 C-146.10281754 58.78099014 -146.10797882 57.93307404 -146.11329651 57.0594635 C-146.11349195 55.03928932 -146.06206211 53.01922066 -146 51 C-144.10232069 49.10232069 -140.72761141 49.45847898 -138.1875 49.1875 C-129.26867658 48.15227942 -120.548348 46.4223489 -111.76708984 44.57519531 C-108.8441017 43.9675934 -105.91690009 43.38451001 -102.98828125 42.8046875 C-91.118337 40.4342745 -79.49976294 37.78583576 -68 34 C-67.00677734 33.67483398 -66.01355469 33.34966797 -64.99023438 33.01464844 C-51.95941623 28.71362676 -39.21335629 24.29001952 -27 18 C-25.70583333 17.35656127 -24.41155888 16.71333931 -23.1171875 16.0703125 C-14.53818794 11.72991136 -6.85172233 6.85172233 0 0 Z " fill="#6AF2BF" transform="translate(495,379)"/>
<path d="M0 0 C5.62653023 2.25061209 5.62653023 2.25061209 8.4453125 4.71484375 C9.34830078 5.49698242 9.34830078 5.49698242 10.26953125 6.29492188 C10.88183594 6.83697266 11.49414062 7.37902344 12.125 7.9375 C13.05505859 8.74477539 13.05505859 8.74477539 14.00390625 9.56835938 C15.68260394 11.03225597 17.3543393 12.49905559 19 14 C19.77855567 14.6297662 19.77855567 14.6297662 20.57283974 15.27225494 C22.50175161 17.60742923 22.37720906 19.04680821 22.38095093 22.05432129 C22.3894104 23.09958481 22.39786987 24.14484833 22.40658569 25.2217865 C22.400513 26.36869461 22.39444031 27.51560272 22.38818359 28.69726562 C22.39344055 29.9058876 22.39869751 31.11450958 22.40411377 32.35975647 C22.41507556 35.68119322 22.41247157 39.00207103 22.40297651 42.32347679 C22.39536672 45.81530876 22.40243173 49.30711725 22.40713501 52.7989502 C22.41260031 58.68030046 22.40539283 64.56153796 22.39111328 70.44287109 C22.37490652 77.19490772 22.37998389 83.94667084 22.3965925 90.69870043 C22.41033166 96.52153842 22.41206357 102.34429528 22.40427649 108.1671443 C22.3996517 111.63245561 22.39882615 115.09763989 22.40888596 118.5629425 C22.48380987 156.22642236 22.48380987 156.22642236 15.8125 172.75 C15.51134277 173.52674072 15.21018555 174.30348145 14.89990234 175.10375977 C9.9068194 187.62749913 3.48454777 198.51722228 -5 209 C-5.80244141 210.01513672 -5.80244141 210.01513672 -6.62109375 211.05078125 C-20.51950528 228.03772868 -40.6565239 238.67319665 -61.25 245.0625 C-62.7513147 245.52982544 -62.7513147 245.52982544 -64.28295898 246.0065918 C-65.69750366 246.4229187 -65.69750366 246.4229187 -67.140625 246.84765625 C-67.98141602 247.09523682 -68.82220703 247.34281738 -69.68847656 247.59790039 C-72.15295661 248.02660747 -73.65073955 247.79221607 -76 247 C-74.40285156 246.30777344 -74.40285156 246.30777344 -72.7734375 245.6015625 C-43.5755934 232.61835149 -21.32024367 210.09735517 -9.2890625 180.35546875 C-8.86367188 179.24816406 -8.43828125 178.14085937 -8 177 C-7.57460938 175.92363281 -7.14921875 174.84726563 -6.7109375 173.73828125 C-4.34191035 167.4907135 -4.34191035 167.4907135 -4.375 160.9375 C-4.95437743 157.28742221 -4.85992571 155.55864657 -4.125 152.0625 C-2.53418105 144.45236613 -2.34509252 136.74641892 -2 129 C-1.67 129 -1.34 129 -1 129 C-0.67 86.43 -0.34 43.86 0 0 Z " fill="#88C6FB" transform="translate(348,49)"/>
<path d="M0 0 C11.91784914 8.92210564 21.67788585 21.82231754 24.7578125 36.65625 C26.645123 54.92054512 23.36800474 70.6112909 12.1875 85.375 C5.13804068 93.63100139 -2.86357936 99.18028357 -13 103 C-13.64783447 103.25966553 -14.29566895 103.51933105 -14.96313477 103.78686523 C-20.97065097 106.03193701 -26.42885419 106.5079854 -32.8125 106.4375 C-33.78300293 106.42920166 -34.75350586 106.42090332 -35.75341797 106.41235352 C-50.69793613 106.06058525 -63.93136056 99.65235082 -74.8359375 89.421875 C-87.27840454 75.49709239 -92.04271736 59.60557868 -91.17919922 41.02490234 C-89.94426329 27.07046289 -81.95071929 14.41959769 -72 5 C-65.85941161 -0.13044831 -59.56347675 -4.33281144 -52 -7 C-51.17113281 -7.29777344 -50.34226563 -7.59554687 -49.48828125 -7.90234375 C-32.33347423 -13.33678627 -15.02629778 -9.1866939 0 0 Z M-65.375 19.3125 C-73.95670485 29.68792184 -77.22462535 41.64392979 -76 55 C-73.78101427 66.54566013 -67.78577216 76.60780496 -58.375 83.625 C-47.11556935 91.08168608 -35.47984215 92.91884434 -22.2265625 90.4921875 C-10.14402396 86.80383363 -1.55627407 79.62085252 5 69 C10.33694537 58.83896888 11.87719592 47.6603062 9.12890625 36.4453125 C5.02612353 25.01132787 -2.18897532 15.35137849 -13.125 9.75 C-14.41088951 9.15403967 -15.7020546 8.56922605 -17 8 C-17.86625 7.608125 -18.7325 7.21625 -19.625 6.8125 C-36.14133208 1.16217587 -53.67067051 6.92870569 -65.375 19.3125 Z " fill="#030304" transform="translate(289,136)"/>
<path d="M0 0 C11.73581351 2.33735562 22.80400011 5.85260632 33.99951172 10.08959961 C41.8951348 13.07542349 41.8951348 13.07542349 50 12 C50.66 11.01 51.32 10.02 52 9 C58.66023672 10.00153936 64.67782298 12.94754236 70 17 C70.609375 19.11328125 70.609375 19.11328125 70.5 21.3125 C70.29172345 23.65066741 70.29172345 23.65066741 71 26 C74.01467104 28.84445187 77.25055546 31.13337975 80.625 33.5234375 C87.95887102 38.74616636 94.83360719 46.2571387 96.41015625 55.37109375 C96.81267341 61.98682457 94.91346077 67.64473789 91 73 C88.828125 74.28125 88.828125 74.28125 87 75 C86.46375 74.5875 85.9275 74.175 85.375 73.75 C72.63939449 64.36586963 58.06622278 58.50424654 43.36962891 52.90527344 C41.26448107 52.10104016 39.16934333 51.27516097 37.07421875 50.4453125 C15.73994669 42.240667 -7.50217528 37.6225311 -30 34 C-28.50656888 30.84142769 -27.15273438 29.0340554 -24.4375 26.8125 C-15.02700286 18.78988194 -7.45944026 9.80184393 0 0 Z " fill="#88C7FB" transform="translate(401,289)"/>
<path d="M0 0 C1.921875 1.8359375 1.921875 1.8359375 3.75 4.375 C10.44090157 13.27943292 18.1020751 23.05910458 27.23046875 29.59765625 C27.81441406 30.06042969 28.39835937 30.52320313 29 31 C29 31.66 29 32.32 29 33 C28.1970752 33.1451001 27.39415039 33.2902002 26.56689453 33.43969727 C-12.35167175 40.5422111 -50.34669032 50.20360815 -84.36621094 71.02636719 C-86.19906993 72.11863283 -88.06651279 73.09770597 -90 74 C-95.46658241 66.66327097 -98.1058247 61.34924521 -97 52 C-93.49562347 39.51124876 -80.68909812 30.26819737 -70 24 C-51.22774226 13.81819512 -22.02748513 -1.72459657 0 0 Z " fill="#88C7FB" transform="translate(112,290)"/>
<path d="M0 0 C7.82606736 5.59004811 13.29227594 14.49366938 15 24 C16.09772922 37.84358511 13.64887977 47.55743991 6 59 C5.4225 59.886875 4.845 60.77375 4.25 61.6875 C-4.09387337 70.26314763 -14.00086009 74.98317138 -25.92529297 75.29296875 C-39.46047884 75.41314798 -48.5164317 71.8613527 -59 63 C-59 62.67 -59 62.34 -59 62 C-57.92363281 61.96261719 -56.84726563 61.92523438 -55.73828125 61.88671875 C-39.7228816 61.21979425 -25.30883266 59.11414045 -13.125 47.625 C-12.05288862 46.44359572 -11.01051899 45.2345 -10 44 C-9.47921875 43.36835938 -8.9584375 42.73671875 -8.421875 42.0859375 C0.31955406 30.29825286 2.11499962 17.20828086 1 3 C0.505 1.515 0.505 1.515 0 0 Z " fill="#25A4FB" transform="translate(284,152)"/>
<path d="M0 0 C-0.12117188 0.57927246 -0.24234375 1.15854492 -0.3671875 1.75537109 C-5.58345064 27.62101438 -5.92643095 54.05192611 -1 80 C-0.66309641 81.99940168 -0.32816561 83.99914557 0 86 C-5.92378375 86.62355618 -10.86729044 84.81328926 -16 82 C-24.20010888 73.59488839 -22.31179674 58.39290743 -22.26074219 47.47705078 C-22.25007731 44.769626 -22.26065513 42.06287268 -22.2734375 39.35546875 C-22.29810481 11.33660487 -22.29810481 11.33660487 -17.875 5.25 C-12.07080946 0.70759001 -7.3297988 -0.15895949 0 0 Z " fill="#5EB3FA" transform="translate(82,141)"/>
<path d="M0 0 C1.42108092 0.13539507 2.84154238 0.27730016 4.26171875 0.421875 C5.44834106 0.53934082 5.44834106 0.53934082 6.65893555 0.65917969 C11.28154797 1.3321557 14.81749653 2.77328697 18.12231445 6.20166016 C24.24545025 15.32705119 22.3418108 31.32102533 22.31567383 41.93457031 C22.31249568 44.62866074 22.33613953 47.32166776 22.36132812 50.015625 C22.44618515 73.07687836 22.44618515 73.07687836 16.8125 81.125 C11.25518868 84.82987421 6.69477117 86.18093976 0 86 C0.18175781 84.96166016 0.18175781 84.96166016 0.3671875 83.90234375 C2.7741381 69.84945525 4.40328347 56.31049392 4.375 42.0625 C4.3764502 41.30995941 4.37790039 40.55741882 4.37939453 39.78207397 C4.37653048 26.2402881 2.95055251 13.24021205 0 0 Z " fill="#25A3FA" transform="translate(430,141)"/>
<path d="M0 0 C0.66 0 1.32 0 2 0 C2.08777806 4.16653186 2.14065272 8.33282276 2.1875 12.5 C2.21263672 13.67304688 2.23777344 14.84609375 2.26367188 16.0546875 C2.35368754 26.73654593 0.18273848 33.96402045 -7 42 C-11.3902747 46.38253171 -15.16961743 49.78608339 -21 52 C-21.24799934 46.84085074 -21.42898392 41.68519212 -21.54931641 36.52148438 C-21.59948251 34.76728891 -21.6676401 33.01350916 -21.75439453 31.26074219 C-22.45864834 16.66197507 -22.45864834 16.66197507 -18.90527344 12.61328125 C-16.31855028 11.08140364 -13.82286852 10.01750113 -11 9 C-9.3028543 7.79170605 -7.62564319 6.55290521 -6 5.25 C-4.9171875 4.39148438 -4.9171875 4.39148438 -3.8125 3.515625 C-1.91681358 1.9760463 -1.91681358 1.9760463 0 0 Z " fill="#00EFA4" transform="translate(495,379)"/>
<path d="M0 0 C0.33 0 0.66 0 1 0 C2.56306784 19.58059309 2.56306784 19.58059309 0 27 C-0.66 27.33 -1.32 27.66 -2 28 C-1.34 18.76 -0.68 9.52 0 0 Z " fill="#9CC1E3" transform="translate(346,178)"/>
<path d="M0 0 C0.66 0.33 1.32 0.66 2 1 C0.58480285 3.0343459 -0.54982123 3.90410393 -2.98046875 4.421875 C-4.98176954 4.66273952 -6.9909944 4.83532741 -9 5 C-6.06626269 3.04417512 -3.21783702 1.43775696 0 0 Z " fill="#7AAEDA" transform="translate(281,292)"/>
<path d="M0 0 C2.16419412 4.32838824 2.20068706 5.49742351 1 10 C0.01 10.495 0.01 10.495 -1 11 C-0.67 7.37 -0.34 3.74 0 0 Z " fill="#94B6D5" transform="translate(345,195)"/>
<path d="M0 0 C0.33 0 0.66 0 1 0 C1 1.65 1 3.3 1 5 C-0.98 5.99 -0.98 5.99 -3 7 C-2.25 2.25 -2.25 2.25 0 0 Z " fill="#A8D0F3" transform="translate(344,209)"/>
</svg>
